<mxfile host="app.diagrams.net" modified="2023-07-21T07:13:24.041Z" agent="Mozilla/5.0 (Windows NT 10.0; Win64; x64; rv:109.0) Gecko/20100101 Firefox/109.0" version="21.5.0" etag="JEtnmjdzpHmXQNpLNJlF" type="github">
  <diagram name="Page-1" id="E1PLGVjkxl_ZGxHXgRBv">
    <mxGraphModel>
      <root>
        <mxCell id="0" />
        <mxCell id="1" parent="0" />
      </root>
    </mxGraphModel>
  </diagram>
</mxfile>
